<svg width="1315" height="24" viewBox="0 0 1315 24" fill="none" xmlns="http://www.w3.org/2000/svg">
<g clip-path="url(#clip0)">
<path fill-rule="evenodd" clip-rule="evenodd" d="M513.353 17.9797C416.872 18.1183 391.081 14.759 384.967 17.6334C381.337 19.3997 403.881 18.3953 409.612 18.9841C419.738 20.023 431.01 19.8152 441.518 20.1616C448.969 20.404 423.177 21.3737 402.735 20.404C392.8 19.9191 373.886 20.1269 369.874 20.1616C313.323 20.3347 336.44 20.3694 293.263 19.5036C235.566 18.3607 70.689 22.5165 105.46 19.365C107.371 19.1919 107.371 18.6031 104.314 18.5339C76.6116 17.8066 78.7132 21.72 52.1572 20.023C32.67 18.7763 59.7992 14.7936 22.5443 15.2092C12.4187 15.3131 17.7681 17.5295 11.8455 17.2525C10.8903 17.2178 9.74397 16.9754 9.74397 16.8023C9.17082 12.3001 -23.8809 12.9927 34.9626 11.2265C52.3482 10.707 82.5342 8.24814 84.0626 7.38234C87.6925 5.26979 34.9626 8.69836 41.0762 4.47325C43.942 2.53386 51.393 2.84555 54.8319 1.56416C59.7992 -0.236703 68.3964 0.00572137 76.8027 0.0749854C85.782 0.906154 95.3345 0.871522 105.269 0.767626C287.722 -0.929343 499.024 1.21784 518.129 2.18754C528.446 2.70702 532.267 2.67239 587.48 2.67239C610.788 2.67239 618.048 4.33472 641.548 2.81092C669.059 1.01005 747.007 3.53819 809.481 2.15291C858.39 1.07931 853.422 4.02304 911.502 2.60312C955.252 1.52953 956.781 4.30009 1017.15 3.53819C1024.99 3.43429 1032.44 3.95377 1034.92 5.30442C1039.31 7.7633 1046.19 6.17022 1062.62 7.38234C1082.49 8.87152 1142.86 7.38234 1186.04 8.90615C1192.54 9.14858 1194.45 12.404 1179.93 12.5425C1111.34 13.1659 949.712 11.5382 1022.31 14.6204C1081.73 17.1139 992.316 17.0447 1210.69 17.01C1237.43 17.01 1264.18 17.2525 1291.12 17.01C1298.38 16.9408 1305.83 16.9754 1312.71 17.4603C1326.08 18.3953 1269.91 20.6118 1235.71 19.4343C1226.16 19.1226 1076.19 19.7806 1074.85 19.8499C1051.54 20.9581 1040.46 19.6421 1024.03 19.8845C1005.12 20.1269 999.576 20.8888 973.02 20.2655C969.199 20.1616 936.338 19.2611 933.664 20.3347C928.123 22.5512 977.796 22.4126 986.394 22.5165C990.215 22.5512 992.698 23.3823 987.922 23.694C977.796 24.352 955.443 23.9365 947.992 23.6248C929.461 22.8975 614.61 19.6421 605.057 20.023C584.424 20.0577 563.599 20.3347 542.966 19.7806C539.336 19.6767 536.661 20.2655 534.75 20.8888C537.807 21.2005 527.299 17.9797 513.353 17.9797ZM236.712 17.6334C233.273 18.7416 255.244 19.3304 267.28 18.5339C282.755 17.4949 241.87 15.9365 236.712 17.6334ZM323.64 17.6334C324.595 17.5295 325.359 17.4256 326.314 17.3217C325.741 17.1832 325.168 16.9754 324.404 16.9408C321.538 16.8369 320.01 17.0447 320.774 17.4603C320.965 17.5642 322.685 17.5988 323.64 17.6334Z" fill="#FFDC60"/>
</g>
<defs>
<clipPath id="clip0">
<rect width="1315" height="24" fill="white"/>
</clipPath>
</defs>
</svg>
